<svg width="131" height="50" viewBox="0 0 131 50" fill="none" xmlns="http://www.w3.org/2000/svg">
<g id="Frame" clip-path="url(#clip0_843_1997)">
<g id="Group">
<g id="Layer_1">
<g id="Group 1000001850">
<path id="Vector" d="M0.0108122 8.80013C0.168833 12.0532 2.28849 14.9902 5.32903 16.1563C6.91469 16.7666 8.5276 16.7066 10.1895 16.7012C11.9986 16.6903 13.8131 16.6848 15.6222 16.6739C15.9219 16.6739 16.2216 16.6739 16.5213 16.6739C16.6248 16.6739 16.8373 16.7175 16.9354 16.6739C17.0226 16.6358 17.1152 16.4396 17.1752 16.3579C17.4095 16.031 17.6438 15.7095 17.8781 15.3825C18.3576 14.7232 18.8371 14.0584 19.3166 13.3991C20.0849 12.3365 19.8343 11.4483 20.0631 10.1515C20.134 9.74826 20.134 8.99629 20.1449 8.58762C20.1776 8.86552 19.916 11.3666 19.916 11.65C19.9269 12.4455 20.0195 11.3448 20.0304 12.1404C20.0631 14.7559 20.1994 17.099 20.232 19.7145C20.2702 22.864 20.1939 26.0135 20.232 29.163C20.2647 31.9039 20.1994 34.6447 20.232 37.3801C20.2484 38.7042 17.3223 40.0447 17.3877 41.3688C17.3877 41.3851 22.4389 41.6303 21.4145 41.6303C21.4581 40.1373 21.8831 38.459 22.6841 37.2003C22.9783 36.7371 23.3107 36.3012 23.6322 35.8599C24.297 34.9335 24.9781 34.0017 25.6374 33.0754C26.591 31.7295 27.5664 30.4 28.5254 29.065C30.4162 26.4385 32.307 23.8176 34.1978 21.1911C35.8053 18.9571 37.4182 16.723 39.0256 14.4889C39.3362 14.0584 39.6468 13.6279 39.9574 13.1975C41.3524 11.2467 41.8646 8.77289 41.3197 6.42982C40.7421 3.95052 39.0147 1.83631 36.7044 0.768309C35.4729 0.201613 34.176 0 32.841 0C30.6887 0.005449 28.5418 0.016347 26.3894 0.021796C23.0655 0.032694 19.7471 0.043592 16.4232 0.05449C13.9875 0.059939 11.5518 0.070837 9.11064 0.076286C8.32598 0.076286 7.55223 0.076286 6.77847 0.223409C4.16295 0.70837 1.89072 2.48474 0.768223 4.9041C0.206976 6.11377 -0.0545758 7.46513 0.0108122 8.80013Z" fill="url(#paint0_linear_843_1997)"/>
<path id="Vector_2" d="M42.5185 41.2052C42.3605 37.9521 40.2408 35.0151 37.2003 33.8491C35.8707 33.3368 34.5194 33.2987 33.1408 33.2987H25.4686L25.4413 33.3368L23.6214 35.8652C23.398 36.1485 23.2018 36.4264 23.022 36.6989C23.0056 36.7152 22.9893 36.737 22.9729 36.7534C22.9511 36.7861 22.9239 36.8297 22.8967 36.8841C21.5508 38.9984 21.3927 40.6984 21.3927 41.3469L20.134 8.61475C20.1013 10.2712 19.5782 11.9168 18.5756 13.3118L16.0854 16.6793H16.08C16.02 16.7664 15.9546 16.8536 15.8892 16.9408C14.9357 18.2867 13.9603 19.6163 13.0013 20.9513C11.1105 23.5777 9.21967 26.1987 7.32887 28.8251C5.72141 31.0592 4.10851 33.2933 2.50106 35.5273C2.19046 35.9578 1.87987 36.3883 1.56928 36.8188C0.174334 38.7695 -0.337872 41.2433 0.207028 43.5864C0.784622 46.0657 2.51195 48.1799 4.82233 49.2479C6.04835 49.8146 7.34521 50.0162 8.68022 50.0108C10.8326 50.0053 12.9795 49.9944 15.1318 49.989C18.4557 49.9781 21.7742 49.9672 25.0981 49.9563C27.5338 49.9508 29.9695 49.9399 32.4106 49.9345C33.1953 49.9345 34.9716 49.9345 35.7454 49.7874C38.3664 49.297 40.6386 47.526 41.7611 45.1067C42.3223 43.8916 42.5839 42.5456 42.5185 41.2106V41.2052Z" fill="#FF00A6"/>
<path id="Vector_3" style="mix-blend-mode:multiply" d="M23.0056 36.7153C21.1802 39.26 20.9295 42.6112 22.3572 45.401C23.7848 48.1909 26.651 49.9401 29.7733 49.9292L34.8408 49.8965C39.0965 49.5205 42.4313 45.935 42.4204 41.5704C42.4204 41.3143 42.4095 41.0582 42.3822 40.8021C41.9845 36.5573 38.4154 33.2389 34.0834 33.2498L25.474 33.2879L23.0056 36.7099V36.7153Z" fill="url(#paint1_linear_843_1997)"/>
<path id="Vector_4" style="mix-blend-mode:multiply" d="M23.0056 36.7154C21.1802 39.2601 20.9295 42.6112 22.3572 45.4011C23.7848 48.191 26.651 49.9401 29.7733 49.9292L32.9064 49.9074C19.7634 45.5101 25.474 33.2935 25.474 33.2935L23.0056 36.7154Z" fill="url(#paint2_linear_843_1997)"/>
<path id="Vector_5" style="mix-blend-mode:multiply" d="M29.7733 49.9292L31.1083 49.9183C30.9448 49.8638 30.7814 49.8093 30.6179 49.7602C17.3659 45.4773 24.4823 34.6992 25.3869 33.4187L23.0111 36.7153C21.1857 39.26 20.935 42.6112 22.3627 45.401C23.7903 48.1909 26.6565 49.9401 29.7788 49.9292H29.7733Z" fill="url(#paint3_linear_843_1997)"/>
<path id="Vector_6" style="mix-blend-mode:multiply" d="M3.2803 7.86296C2.98606 12.4456 6.44072 16.4015 11.0015 16.6958L16.0854 16.6685L18.5756 13.3011C20.3357 10.849 20.6299 7.6232 19.3439 4.8878C18.0634 2.15786 15.4043 0.33789 12.4019 0.141726L11.5137 0.0817871C7.19813 0.0926851 3.5691 3.46561 3.28575 7.86296H3.2803Z" fill="url(#paint4_linear_843_1997)"/>
<path id="Vector_7" style="mix-blend-mode:multiply" d="M16.0908 16.674L18.581 13.3065C20.341 10.8545 20.6353 7.62865 19.3493 4.89325C18.0633 2.15786 15.4042 0.33789 12.4018 0.141726L11.5137 0.0817871C10.3258 0.0817871 9.19783 0.343339 8.16797 0.806504C22.2046 6.73501 17.0607 15.2518 16.0908 16.6685V16.674Z" fill="url(#paint5_linear_843_1997)"/>
<path id="Vector_8" style="mix-blend-mode:multiply" d="M18.5703 13.2138C20.3357 10.7617 20.6354 7.53592 19.344 4.80597C18.0526 2.06512 15.3771 0.250607 12.3584 0.0544434C22.4663 4.94219 18.6302 12.8487 16.7176 15.7857L18.5703 13.2138Z" fill="url(#paint6_linear_843_1997)"/>
<path id="Vector_9" style="mix-blend-mode:multiply" opacity="0.6" d="M20.1449 8.58228L21.4636 42.1971C21.4636 42.1971 21.2674 39.914 22.1719 38.203C23.0765 36.492 26.3513 32.062 26.3513 32.062L20.1503 8.58228H20.1449Z" fill="url(#paint7_linear_843_1997)"/>
<path id="Vector_10" style="mix-blend-mode:multiply" d="M21.322 37.5383L23.1692 30.9123L20.1342 8.59863L21.2349 37.8216L21.322 37.5383Z" fill="url(#paint8_linear_843_1997)"/>
</g>
<path id="Vector_11" d="M63.2193 13.3174V16.7339L55.9285 34.2415H63.2193V37.7289H51.9889V34.3124L59.2796 16.8047H52.3431V13.3174H63.2247H63.2193Z" fill="black"/>
<path id="Vector_12" d="M69.1477 13.3174V32.1491C69.1477 33.8928 69.916 34.5194 71.1366 34.5194C72.3572 34.5194 73.1255 33.8928 73.1255 32.1491V13.3174H76.7545V31.9039C76.7545 35.8108 74.8038 38.0395 71.0331 38.0395C67.2624 38.0395 65.3116 35.8054 65.3116 31.9039V13.3174H69.1477Z" fill="black"/>
<path id="Vector_13" d="M90.0011 13.3174V16.7339L82.7104 34.2415H90.0011V37.7289H78.7708V34.3124L86.0615 16.8047H79.1249V13.3174H90.0066H90.0011Z" fill="black"/>
<path id="Vector_14" d="M102.904 13.3174V16.7339L95.6136 34.2415H102.904V37.7289H91.674V34.3124L98.9647 16.8047H92.0281V13.3174H102.91H102.904Z" fill="black"/>
<path id="Vector_15" d="M108.833 13.3174V32.1491C108.833 33.8928 109.601 34.5194 110.822 34.5194C112.042 34.5194 112.811 33.8928 112.811 32.1491V13.3174H116.44V31.9039C116.44 35.8108 114.489 38.0395 110.718 38.0395C106.947 38.0395 104.997 35.8054 104.997 31.9039V13.3174H108.833Z" fill="black"/>
<path id="Vector_16" d="M122.717 13.3174V32.1491C122.717 33.8928 123.485 34.5194 124.706 34.5194C125.926 34.5194 126.695 33.8928 126.695 32.1491V13.3174H130.324V31.9039C130.324 35.8108 128.373 38.0395 124.602 38.0395C120.831 38.0395 118.881 35.8054 118.881 31.9039V13.3174H122.717Z" fill="black"/>
</g>
</g>
</g>
<defs>
<linearGradient id="paint0_linear_843_1997" x1="4.27193" y1="-1.54207" x2="27.7353" y2="21.4146" gradientUnits="userSpaceOnUse">
<stop stop-color="#29D7FF"/>
<stop offset="0.14" stop-color="#3CBFFF"/>
<stop offset="0.42" stop-color="#7083FF"/>
<stop offset="0.83" stop-color="#C123FF"/>
<stop offset="0.98" stop-color="#E000FF"/>
</linearGradient>
<linearGradient id="paint1_linear_843_1997" x1="16.4668" y1="42.6988" x2="42.1469" y2="40.6706" gradientUnits="userSpaceOnUse">
<stop stop-color="#643C81"/>
<stop offset="0.43" stop-color="#AB95BB"/>
<stop offset="0.82" stop-color="#E7E1EB"/>
<stop offset="1" stop-color="white"/>
</linearGradient>
<linearGradient id="paint2_linear_843_1997" x1="17.9435" y1="20.8262" x2="30.3835" y2="55.4164" gradientUnits="userSpaceOnUse">
<stop stop-color="#942162"/>
<stop offset="0.49" stop-color="#CC95B4"/>
<stop offset="0.84" stop-color="#F0E1EA"/>
<stop offset="1" stop-color="white"/>
</linearGradient>
<linearGradient id="paint3_linear_843_1997" x1="17.2406" y1="21.0767" x2="29.6807" y2="55.6724" gradientUnits="userSpaceOnUse">
<stop stop-color="#942162"/>
<stop offset="0.49" stop-color="#CC95B4"/>
<stop offset="0.84" stop-color="#F0E1EA"/>
<stop offset="1" stop-color="white"/>
</linearGradient>
<linearGradient id="paint4_linear_843_1997" x1="27.5408" y1="12.691" x2="3.66798" y2="6.24268" gradientUnits="userSpaceOnUse">
<stop stop-color="#513CFF"/>
<stop offset="0.43" stop-color="#A195FF"/>
<stop offset="0.82" stop-color="#E4E1FF"/>
<stop offset="1" stop-color="white"/>
</linearGradient>
<linearGradient id="paint5_linear_843_1997" x1="35.1677" y1="34.3287" x2="8.19521" y2="-2.27218" gradientUnits="userSpaceOnUse">
<stop stop-color="#513CFF"/>
<stop offset="0.43" stop-color="#A195FF"/>
<stop offset="0.82" stop-color="#E4E1FF"/>
<stop offset="1" stop-color="white"/>
</linearGradient>
<linearGradient id="paint6_linear_843_1997" x1="35.7182" y1="34.1706" x2="8.555" y2="-2.6973" gradientUnits="userSpaceOnUse">
<stop stop-color="#513CFF"/>
<stop offset="0.43" stop-color="#A195FF"/>
<stop offset="0.82" stop-color="#E4E1FF"/>
<stop offset="1" stop-color="white"/>
</linearGradient>
<linearGradient id="paint7_linear_843_1997" x1="23.9701" y1="36.3613" x2="18.5429" y2="17.584" gradientUnits="userSpaceOnUse">
<stop stop-color="white"/>
<stop offset="0.16" stop-color="#EBE1F4"/>
<stop offset="0.51" stop-color="#B995D9"/>
<stop offset="1" stop-color="#6C21B0"/>
</linearGradient>
<linearGradient id="paint8_linear_843_1997" x1="23.5214" y1="32.695" x2="18.6603" y2="16.464" gradientUnits="userSpaceOnUse">
<stop offset="0.16" stop-color="white"/>
<stop offset="0.29" stop-color="#EBE1F4"/>
<stop offset="0.59" stop-color="#B995D9"/>
<stop offset="1" stop-color="#6C21B0"/>
</linearGradient>
<clipPath id="clip0_843_1997">
<rect width="130.318" height="50" fill="white"/>
</clipPath>
</defs>
</svg>
